<?xml version="1.0" encoding="UTF-8"?>
<svg xmlns="http://www.w3.org/2000/svg" viewBox="0 0 1600 900" preserveAspectRatio="xMidYMid slice">
  <defs>
    <linearGradient id="sky" x1="0" y1="0" x2="0" y2="1">
      <stop offset="0" stop-color="#070a1a"/><stop offset="0.55" stop-color="#101838"/><stop offset="1" stop-color="#22305e"/>
    </linearGradient>
    <radialGradient id="moon" cx="0.78" cy="0.2" r="0.09">
      <stop offset="0" stop-color="#eef1ff" stop-opacity="0.95"/><stop offset="1" stop-color="#eef1ff" stop-opacity="0"/>
    </radialGradient>
  </defs>
  <rect width="1600" height="900" fill="url(#sky)"/>
  <circle cx="1507" cy="81" r="2" fill="#dfe5ff" opacity="0.37"/><circle cx="64" cy="412" r="1" fill="#dfe5ff" opacity="0.49"/><circle cx="221" cy="183" r="2" fill="#dfe5ff" opacity="0.61"/><circle cx="378" cy="514" r="1" fill="#dfe5ff" opacity="0.25"/><circle cx="535" cy="285" r="2" fill="#dfe5ff" opacity="0.37"/><circle cx="692" cy="56" r="1" fill="#dfe5ff" opacity="0.49"/><circle cx="849" cy="387" r="2" fill="#dfe5ff" opacity="0.61"/><circle cx="1006" cy="158" r="1" fill="#dfe5ff" opacity="0.25"/><circle cx="1163" cy="489" r="2" fill="#dfe5ff" opacity="0.37"/><circle cx="1320" cy="260" r="1" fill="#dfe5ff" opacity="0.49"/><circle cx="1477" cy="31" r="2" fill="#dfe5ff" opacity="0.61"/><circle cx="34" cy="362" r="1" fill="#dfe5ff" opacity="0.25"/><circle cx="191" cy="133" r="2" fill="#dfe5ff" opacity="0.37"/><circle cx="348" cy="464" r="1" fill="#dfe5ff" opacity="0.49"/><circle cx="505" cy="235" r="2" fill="#dfe5ff" opacity="0.61"/><circle cx="662" cy="6" r="1" fill="#dfe5ff" opacity="0.25"/><circle cx="819" cy="337" r="2" fill="#dfe5ff" opacity="0.37"/><circle cx="976" cy="108" r="1" fill="#dfe5ff" opacity="0.49"/><circle cx="1133" cy="439" r="2" fill="#dfe5ff" opacity="0.61"/><circle cx="1290" cy="210" r="1" fill="#dfe5ff" opacity="0.25"/><circle cx="1447" cy="541" r="2" fill="#dfe5ff" opacity="0.37"/><circle cx="4" cy="312" r="1" fill="#dfe5ff" opacity="0.49"/><circle cx="161" cy="83" r="2" fill="#dfe5ff" opacity="0.61"/><circle cx="318" cy="414" r="1" fill="#dfe5ff" opacity="0.25"/><circle cx="475" cy="185" r="2" fill="#dfe5ff" opacity="0.37"/><circle cx="632" cy="516" r="1" fill="#dfe5ff" opacity="0.49"/><circle cx="789" cy="287" r="2" fill="#dfe5ff" opacity="0.61"/><circle cx="946" cy="58" r="1" fill="#dfe5ff" opacity="0.25"/><circle cx="1103" cy="389" r="2" fill="#dfe5ff" opacity="0.37"/><circle cx="1260" cy="160" r="1" fill="#dfe5ff" opacity="0.49"/><circle cx="1417" cy="491" r="2" fill="#dfe5ff" opacity="0.61"/><circle cx="1574" cy="262" r="1" fill="#dfe5ff" opacity="0.25"/><circle cx="131" cy="33" r="2" fill="#dfe5ff" opacity="0.37"/><circle cx="288" cy="364" r="1" fill="#dfe5ff" opacity="0.49"/><circle cx="445" cy="135" r="2" fill="#dfe5ff" opacity="0.61"/><circle cx="602" cy="466" r="1" fill="#dfe5ff" opacity="0.25"/><circle cx="759" cy="237" r="2" fill="#dfe5ff" opacity="0.37"/><circle cx="916" cy="8" r="1" fill="#dfe5ff" opacity="0.49"/><circle cx="1073" cy="339" r="2" fill="#dfe5ff" opacity="0.61"/><circle cx="1230" cy="110" r="1" fill="#dfe5ff" opacity="0.25"/><circle cx="1387" cy="441" r="2" fill="#dfe5ff" opacity="0.37"/><circle cx="1544" cy="212" r="1" fill="#dfe5ff" opacity="0.49"/><circle cx="101" cy="543" r="2" fill="#dfe5ff" opacity="0.61"/><circle cx="258" cy="314" r="1" fill="#dfe5ff" opacity="0.25"/><circle cx="415" cy="85" r="2" fill="#dfe5ff" opacity="0.37"/><circle cx="572" cy="416" r="1" fill="#dfe5ff" opacity="0.49"/><circle cx="729" cy="187" r="2" fill="#dfe5ff" opacity="0.61"/><circle cx="886" cy="518" r="1" fill="#dfe5ff" opacity="0.25"/><circle cx="1043" cy="289" r="2" fill="#dfe5ff" opacity="0.37"/><circle cx="1200" cy="60" r="1" fill="#dfe5ff" opacity="0.49"/><circle cx="1357" cy="391" r="2" fill="#dfe5ff" opacity="0.61"/><circle cx="1514" cy="162" r="1" fill="#dfe5ff" opacity="0.25"/><circle cx="71" cy="493" r="2" fill="#dfe5ff" opacity="0.37"/><circle cx="228" cy="264" r="1" fill="#dfe5ff" opacity="0.49"/><circle cx="385" cy="35" r="2" fill="#dfe5ff" opacity="0.61"/>
  <circle cx="1240" cy="180" r="46" fill="#eef1ff" opacity="0.9"/>
  <rect width="1600" height="900" fill="url(#moon)"/>
  <path d="M0 560 L300 320 L520 560 L760 260 L980 560 L1240 380 L1600 560 L1600 900 L0 900 Z" fill="#1a2248"/>
  <path d="M0 660 L260 470 L470 660 L720 400 L960 660 L1230 500 L1600 660 L1600 900 L0 900 Z" fill="#131a3c"/>
  <path d="M0 780 L360 620 L700 780 L1080 640 L1600 780 L1600 900 L0 900 Z" fill="#0c1026"/>
  <path d="M120 570 L300 320 L480 570" fill="none" stroke="#cdd5ff" stroke-width="2" opacity="0.5"/>
  <path d="M600 430 L760 260 L920 430" fill="none" stroke="#cdd5ff" stroke-width="2" opacity="0.5"/>
</svg>