<?xml version="1.0" encoding="UTF-8"?>
<svg xmlns="http://www.w3.org/2000/svg" viewBox="0 0 1600 900" preserveAspectRatio="xMidYMid slice">
  <defs>
    <linearGradient id="sky" x1="0" y1="0" x2="0" y2="1">
      <stop offset="0" stop-color="#070a18"/><stop offset="0.6" stop-color="#0f1732"/><stop offset="1" stop-color="#1c2750"/>
    </linearGradient>
    <linearGradient id="city" x1="0" y1="0" x2="0" y2="1">
      <stop offset="0" stop-color="#101633"/><stop offset="1" stop-color="#0a0e22"/>
    </linearGradient>
  </defs>
  <rect width="1600" height="900" fill="url(#sky)"/>
  <circle cx="411" cy="73" r="2" fill="#dfe5ff" opacity="0.37"/><circle cx="568" cy="404" r="1" fill="#dfe5ff" opacity="0.49"/><circle cx="725" cy="175" r="2" fill="#dfe5ff" opacity="0.61"/><circle cx="882" cy="506" r="1" fill="#dfe5ff" opacity="0.25"/><circle cx="1039" cy="277" r="2" fill="#dfe5ff" opacity="0.37"/><circle cx="1196" cy="48" r="1" fill="#dfe5ff" opacity="0.49"/><circle cx="1353" cy="379" r="2" fill="#dfe5ff" opacity="0.61"/><circle cx="1510" cy="150" r="1" fill="#dfe5ff" opacity="0.25"/><circle cx="67" cy="481" r="2" fill="#dfe5ff" opacity="0.37"/><circle cx="224" cy="252" r="1" fill="#dfe5ff" opacity="0.49"/><circle cx="381" cy="23" r="2" fill="#dfe5ff" opacity="0.61"/><circle cx="538" cy="354" r="1" fill="#dfe5ff" opacity="0.25"/><circle cx="695" cy="125" r="2" fill="#dfe5ff" opacity="0.37"/><circle cx="852" cy="456" r="1" fill="#dfe5ff" opacity="0.49"/><circle cx="1009" cy="227" r="2" fill="#dfe5ff" opacity="0.61"/><circle cx="1166" cy="558" r="1" fill="#dfe5ff" opacity="0.25"/><circle cx="1323" cy="329" r="2" fill="#dfe5ff" opacity="0.37"/><circle cx="1480" cy="100" r="1" fill="#dfe5ff" opacity="0.49"/><circle cx="37" cy="431" r="2" fill="#dfe5ff" opacity="0.61"/><circle cx="194" cy="202" r="1" fill="#dfe5ff" opacity="0.25"/><circle cx="351" cy="533" r="2" fill="#dfe5ff" opacity="0.37"/><circle cx="508" cy="304" r="1" fill="#dfe5ff" opacity="0.49"/><circle cx="665" cy="75" r="2" fill="#dfe5ff" opacity="0.61"/><circle cx="822" cy="406" r="1" fill="#dfe5ff" opacity="0.25"/><circle cx="979" cy="177" r="2" fill="#dfe5ff" opacity="0.37"/><circle cx="1136" cy="508" r="1" fill="#dfe5ff" opacity="0.49"/><circle cx="1293" cy="279" r="2" fill="#dfe5ff" opacity="0.61"/><circle cx="1450" cy="50" r="1" fill="#dfe5ff" opacity="0.25"/><circle cx="7" cy="381" r="2" fill="#dfe5ff" opacity="0.37"/><circle cx="164" cy="152" r="1" fill="#dfe5ff" opacity="0.49"/><circle cx="321" cy="483" r="2" fill="#dfe5ff" opacity="0.61"/><circle cx="478" cy="254" r="1" fill="#dfe5ff" opacity="0.25"/><circle cx="635" cy="25" r="2" fill="#dfe5ff" opacity="0.37"/><circle cx="792" cy="356" r="1" fill="#dfe5ff" opacity="0.49"/><circle cx="949" cy="127" r="2" fill="#dfe5ff" opacity="0.61"/><circle cx="1106" cy="458" r="1" fill="#dfe5ff" opacity="0.25"/><circle cx="1263" cy="229" r="2" fill="#dfe5ff" opacity="0.37"/><circle cx="1420" cy="0" r="1" fill="#dfe5ff" opacity="0.49"/><circle cx="1577" cy="331" r="2" fill="#dfe5ff" opacity="0.61"/><circle cx="134" cy="102" r="1" fill="#dfe5ff" opacity="0.25"/><circle cx="291" cy="433" r="2" fill="#dfe5ff" opacity="0.37"/><circle cx="448" cy="204" r="1" fill="#dfe5ff" opacity="0.49"/><circle cx="605" cy="535" r="2" fill="#dfe5ff" opacity="0.61"/><circle cx="762" cy="306" r="1" fill="#dfe5ff" opacity="0.25"/><circle cx="919" cy="77" r="2" fill="#dfe5ff" opacity="0.37"/><circle cx="1076" cy="408" r="1" fill="#dfe5ff" opacity="0.49"/><circle cx="1233" cy="179" r="2" fill="#dfe5ff" opacity="0.61"/><circle cx="1390" cy="510" r="1" fill="#dfe5ff" opacity="0.25"/><circle cx="1547" cy="281" r="2" fill="#dfe5ff" opacity="0.37"/><circle cx="104" cy="52" r="1" fill="#dfe5ff" opacity="0.49"/><circle cx="261" cy="383" r="2" fill="#dfe5ff" opacity="0.61"/><circle cx="418" cy="154" r="1" fill="#dfe5ff" opacity="0.25"/><circle cx="575" cy="485" r="2" fill="#dfe5ff" opacity="0.37"/><circle cx="732" cy="256" r="1" fill="#dfe5ff" opacity="0.49"/><circle cx="889" cy="27" r="2" fill="#dfe5ff" opacity="0.61"/><circle cx="1046" cy="358" r="1" fill="#dfe5ff" opacity="0.25"/><circle cx="1203" cy="129" r="2" fill="#dfe5ff" opacity="0.37"/><circle cx="1360" cy="460" r="1" fill="#dfe5ff" opacity="0.49"/><circle cx="1517" cy="231" r="2" fill="#dfe5ff" opacity="0.61"/><circle cx="74" cy="2" r="1" fill="#dfe5ff" opacity="0.25"/><circle cx="231" cy="333" r="2" fill="#dfe5ff" opacity="0.37"/><circle cx="388" cy="104" r="1" fill="#dfe5ff" opacity="0.49"/><circle cx="545" cy="435" r="2" fill="#dfe5ff" opacity="0.61"/><circle cx="702" cy="206" r="1" fill="#dfe5ff" opacity="0.25"/><circle cx="859" cy="537" r="2" fill="#dfe5ff" opacity="0.37"/><circle cx="1016" cy="308" r="1" fill="#dfe5ff" opacity="0.49"/><circle cx="1173" cy="79" r="2" fill="#dfe5ff" opacity="0.61"/><circle cx="1330" cy="410" r="1" fill="#dfe5ff" opacity="0.25"/><circle cx="1487" cy="181" r="2" fill="#dfe5ff" opacity="0.37"/><circle cx="44" cy="512" r="1" fill="#dfe5ff" opacity="0.49"/>
  <g fill="url(#city)">
    <rect x="0" y="430" width="120" height="470"/>
    <rect x="140" y="360" width="150" height="540"/>
    <rect x="310" y="470" width="100" height="430"/>
    <rect x="430" y="320" width="170" height="580"/>
    <rect x="620" y="410" width="120" height="490"/>
    <rect x="760" y="280" width="140" height="620"/>
    <rect x="920" y="440" width="150" height="460"/>
    <rect x="1090" y="340" width="120" height="560"/>
    <rect x="1230" y="470" width="160" height="430"/>
    <rect x="1410" y="390" width="190" height="510"/>
  </g>
  <g fill="#5f7cff" opacity="0.85">
    <rect x="170" y="420" width="10" height="14"/><rect x="210" y="450" width="10" height="14"/><rect x="250" y="400" width="10" height="14"/>
    <rect x="470" y="380" width="10" height="14"/><rect x="520" y="420" width="10" height="14"/><rect x="560" y="360" width="10" height="14"/>
    <rect x="790" y="340" width="10" height="14"/><rect x="840" y="390" width="10" height="14"/><rect x="860" y="320" width="10" height="14"/>
    <rect x="1120" y="400" width="10" height="14"/><rect x="1160" y="440" width="10" height="14"/><rect x="1180" y="370" width="10" height="14"/>
    <rect x="1450" y="430" width="10" height="14"/><rect x="1500" y="470" width="10" height="14"/>
  </g>
  <g fill="#8fa3ff" opacity="0.5">
    <rect x="160" y="560" width="8" height="12"/><rect x="200" y="590" width="8" height="12"/><rect x="520" y="560" width="8" height="12"/>
    <rect x="830" y="520" width="8" height="12"/><rect x="900" y="560" width="8" height="12"/><rect x="1170" y="560" width="8" height="12"/>
    <rect x="1460" y="580" width="8" height="12"/>
  </g>
</svg>